# xmcd
#
# Track frame offsets: 
#        150
#        13812
#        28834
#        48363
#        60564
#        75282
#        87630
#        101000
#        116855
#        139519
#
# Disc length: 2109 seconds
#
# Revision: 7
# Processed by: cddbd v1.5.2PL0 Copyright (c) Steve Scherf et al.
# Submitted via: ExactAudioCopy v1.3
#
DISCID=7f083b0a
DTITLE=Holly Dunn - Across The Rio Grande
DYEAR=1988
DGENRE=Country
TTITLE0=City Limit
TTITLE1=The Stronger The Tie,
TTITLE2=Just Across The Rio Grande
TTITLE3=Have  A Heart 
TTITLE4=If Nobody Knew My Name
TTITLE5=That's What Your Love Does To Me
TTITLE6=It's Always Gonna Be
TTITLE7=Lonesome Highway 
TTITLE8=Travelin' Prayer
TTITLE9=On The Wings Of An Angel
EXTD=
EXTT0=
EXTT1=
EXTT2=
EXTT3=
EXTT4=
EXTT5=
EXTT6=
EXTT7=
EXTT8=
EXTT9=
PLAYORDER=
